<svg width="88" height="90" viewBox="0 0 88 90" fill="none" xmlns="http://www.w3.org/2000/svg">
<path d="M62.353 23.7013C61.2992 22.6355 59.8887 22.0452 58.3809 22.0288H33.1862C30.1058 22.0288 27.5766 24.5703 27.5766 27.7022V29.7518H25.3554C24.6096 29.7518 24.0098 30.3585 24.0098 31.1128C24.0098 31.867 24.6096 32.4737 25.3554 32.4737H27.5766V38.9669H25.3554C24.6096 38.9833 24.0098 39.59 24.0098 40.3443C24.0098 41.0985 24.6096 41.7052 25.3554 41.7052H27.5766V48.1985H25.3554C24.6096 48.1985 24.0098 48.8215 24.0098 49.5758C24.0098 50.3301 24.6096 50.9368 25.3554 50.9368H27.5766V57.43H25.3554C24.6096 57.43 24.0098 58.0367 24.0098 58.7909C24.0098 59.5452 24.6096 60.1519 25.3554 60.1519H27.5766V62.2015C27.5766 65.3333 30.0896 67.8749 33.1862 67.8749H58.3809C61.4775 67.8749 63.9905 65.3333 63.9905 62.2015V27.7022C63.9905 26.1937 63.4068 24.7671 62.353 23.7013ZM30.2841 60.1683H32.4891C33.2348 60.1683 33.8347 59.5616 33.8347 58.8073C33.8347 58.0531 33.2348 57.4464 32.4891 57.4464H30.2841V50.9532H32.4891C33.2348 50.9532 33.8347 50.3465 33.8347 49.5922C33.8347 48.8379 33.2348 48.2313 32.4891 48.2313H30.2841V41.738H32.4891C33.2348 41.738 33.8347 41.1313 33.8347 40.3771C33.8347 39.6228 33.2348 39.0161 32.4891 39.0161H30.2841V32.4737H32.4891C33.2348 32.4737 33.8347 31.867 33.8347 31.1128C33.8347 30.3585 33.2348 29.7518 32.4891 29.7518H30.2841V27.7022C30.2841 26.0789 31.5973 24.7507 33.2024 24.7507H58.3809C59.9859 24.7507 61.283 26.0789 61.2992 27.7022V62.2015C61.2992 63.8248 59.9859 65.1366 58.3809 65.153H33.2024C31.5973 65.153 30.3003 63.8248 30.2841 62.2015V60.1683Z" fill="#662C91"/>
<path d="M45.7837 44.6405C48.6371 44.6405 50.9556 42.2957 50.9556 39.4098C50.9556 36.524 48.6371 34.1792 45.7837 34.1792C42.9302 34.1792 40.6118 36.524 40.6118 39.4098C40.6118 42.2957 42.9302 44.6405 45.7837 44.6405ZM45.7837 36.3272C47.4536 36.3272 48.8155 37.7046 48.8155 39.3935C48.8155 41.0823 47.4536 42.4597 45.7837 42.4597C44.1138 42.4597 42.7519 41.0823 42.7519 39.3935C42.7519 37.7046 44.1138 36.3272 45.7837 36.3272Z" fill="#662C91"/>
<path d="M38.9416 55.7411H52.6252C53.2089 55.7411 53.6953 55.2656 53.6953 54.6589C53.6953 50.0186 50.2257 46.3784 45.7834 46.3784C41.3411 46.3784 37.8716 50.0186 37.8716 54.6589C37.8716 55.2492 38.358 55.7411 38.9416 55.7411ZM45.7834 48.5264C48.7179 48.5264 51.0202 50.6252 51.4741 53.5767H40.0927C40.5467 50.6416 42.8327 48.5264 45.7834 48.5264Z" fill="#662C91"/>
</svg>
